<svg xmlns="http://www.w3.org/2000/svg" xmlns:xlink="http://www.w3.org/1999/xlink" width="1387.827148" height="428.386719" viewBox="0 0 1387.83 428.387"><path d="M0 0L278.417 0L278.417 94.084L0 94.084L0 0Z" fill="#FFFFFF" fill-opacity="1.000000" transform="matrix(1 0 0 1 14.1406 14.1406)"/><path d="M0 0L278.417 0L278.417 94.084L0 94.084L0 0Z" fill="none" stroke="#19191A" stroke-opacity="1.000000" stroke-width="2" stroke-dasharray="0 0" transform="matrix(1 0 0 1 14.1406 14.1406)"/><clipPath id="clip_16_30_0"><path d="M16.9631 42.9631L289.735 42.9631L289.735 131.402L16.9631 131.402L16.9631 42.9631Z"/></clipPath><g clip-path="url(#clip_16_30_0)"><path d="M99.9213 50.0628L98.099 50.4963L98.099 47.5432L99.9916 47.5432L99.9916 45.9085L98.099 45.9085L98.099 42.3342L96.5346 42.3342L96.5346 45.9085L94.4486 45.9085C95.0463 44.2561 95.6498 42.2874 96.1303 40.2483L100.038 40.2483L100.038 38.6135L96.4877 38.6135C96.6576 37.7522 96.8217 36.885 96.9447 36.0471L95.2865 35.7835C95.1928 36.7444 95.0463 37.676 94.8822 38.6135L92.4096 38.6135L92.4096 40.2483L94.5424 40.2483C94.1615 42.217 93.6811 43.8225 93.4643 44.4436C93.1303 45.5042 92.8432 46.2717 92.4565 46.3889C92.6498 46.7756 92.9135 47.5667 92.9838 47.9006C93.2006 47.6838 93.8979 47.5432 94.6654 47.5432L96.5346 47.5432L96.5346 50.8538C94.9291 51.217 93.4643 51.5745 92.31 51.7913L92.6967 53.4436C93.8217 53.1799 95.1459 52.846 96.5346 52.4885L96.5346 57.6448L98.099 57.6448L98.099 52.0784L100.062 51.5745L99.9213 50.0628ZM102.658 51.3108L102.658 49.342L105.945 49.342L105.945 51.3108L102.658 51.3108ZM105.945 46.1018L105.945 47.9768L102.658 47.9768L102.658 46.1018L105.945 46.1018ZM107.433 44.6604L101.193 44.6604L101.193 57.5745L102.658 57.5745L102.658 52.6526L105.945 52.6526L105.945 55.7756C105.945 55.9924 105.898 56.0393 105.681 56.0628C105.464 56.0628 104.843 56.0628 104.099 56.0393C104.31 56.4729 104.503 57.094 104.55 57.5276C105.581 57.5276 106.326 57.5042 106.806 57.2405C107.31 56.9768 107.433 56.5432 107.433 55.7756L107.433 44.6604ZM111.822 55.6292C111.822 55.9163 111.728 55.9924 111.441 55.9924C111.13 56.0159 110.193 56.0159 109.091 55.9924C109.326 56.4202 109.496 57.0471 109.566 57.4573C110.984 57.4573 111.921 57.428 112.519 57.1643C113.099 56.9241 113.263 56.4963 113.263 55.6292L113.263 44.2327L111.822 44.2327L111.822 55.6292ZM110.169 45.094L108.775 45.094L108.775 53.7131L110.169 53.7131L110.169 45.094ZM103.302 41.6135C104.673 40.6526 105.921 39.5042 106.999 38.2561C108.201 39.5979 109.542 40.676 111.007 41.6135L103.302 41.6135ZM106.976 35.6604C105.417 38.1799 102.464 40.5354 99.5873 41.8772C99.9916 42.2405 100.472 42.7913 100.736 43.2014C101.386 42.8616 102.031 42.4807 102.658 42.0706L102.658 43.0784L111.488 43.0784L111.488 41.9241C112.091 42.2874 112.712 42.6213 113.363 42.9612C113.603 42.4573 114.078 41.9241 114.488 41.5667C111.992 40.4885 109.712 39.1409 107.913 37.1018C108.107 36.8381 108.271 36.5745 108.441 36.3342L106.976 35.6604ZM122.339 37.7991C123.898 38.8772 125.122 40.2249 126.154 41.6838C124.618 48.4573 121.642 53.303 116.286 56.0628C116.767 56.3967 117.587 57.1174 117.898 57.5042C122.72 54.6682 125.767 50.2795 127.595 44.0393C130.232 48.8381 131.89 54.3577 137.363 57.4045C137.48 56.8772 137.913 55.8928 138.247 55.4358C130.302 50.6838 131.023 41.7131 123.417 36.2639L122.339 37.7991ZM153.077 39.2874C152.743 38.2795 151.929 36.7444 151.208 35.6135L149.363 36.1409C150.077 37.3186 150.851 38.9241 151.138 39.9085L153.077 39.2874ZM156.224 41.7131C155.023 44.9534 153.417 47.5901 151.279 49.7522C149.023 47.4963 147.294 44.76 146.046 41.7131L156.224 41.7131ZM162.007 41.7131L162.007 39.9612L140.503 39.9612L140.503 41.7131L144.2 41.7131C145.595 45.3342 147.488 48.4573 149.96 51.0003C147.347 53.2092 144.13 54.8381 140.169 55.969C140.527 56.3733 141.054 57.1878 141.271 57.6213C145.255 56.3499 148.566 54.6213 151.255 52.2717C153.921 54.6682 157.185 56.4202 161.099 57.5276C161.386 57.0237 161.89 56.2795 162.318 55.8694C158.503 54.9319 155.263 53.2327 152.626 51.0003C155.023 48.5276 156.874 45.5042 158.24 41.7131L162.007 41.7131ZM169.689 35.8303C168.417 39.4573 166.302 43.0315 164.07 45.3577C164.386 45.7678 164.913 46.676 165.077 47.1096C165.821 46.2717 166.595 45.3342 167.286 44.303L167.286 57.6213L168.991 57.6213L168.991 41.5432C169.905 39.885 170.696 38.1096 171.37 36.3577L169.689 35.8303ZM185.96 47.637L179.456 47.637L179.456 42.3811L184.929 42.3811L184.929 40.6292L179.456 40.6292L179.456 36.0471L177.681 36.0471L177.681 40.6292L174.487 40.6292C174.798 39.551 175.062 38.4202 175.279 37.2952L173.603 36.9319C173.046 40.0315 172.062 43.1487 170.65 45.1174C171.107 45.3342 171.851 45.7678 172.185 46.0315C172.829 45.0237 173.409 43.7756 173.913 42.3811L177.681 42.3811L177.681 47.637L170.843 47.637L170.843 49.3889L177.681 49.3889L177.681 57.6682L179.456 57.6682L179.456 49.3889L185.96 49.3889L185.96 47.637Z" fill="#19191A" fill-opacity="1.000000" transform="matrix(1 0 0 1 14.1406 14.1406)"/></g><path d="M0 0L278.417 0L278.417 94.084L0 94.084L0 0Z" fill="#FFFFFF" fill-opacity="1.000000" transform="matrix(1 0 0 1 504.271 14.1406)"/><path d="M0 0L278.417 0L278.417 94.084L0 94.084L0 0Z" fill="none" stroke="#19191A" stroke-opacity="1.000000" stroke-width="2" stroke-dasharray="0 0" transform="matrix(1 0 0 1 504.271 14.1406)"/><clipPath id="clip_16_31_0"><path d="M507.093 42.9631L779.865 42.9631L779.865 131.402L507.093 131.402L507.093 42.9631Z"/></clipPath><g clip-path="url(#clip_16_31_0)"><path d="M83.2866 49.0315C84.9682 46.846 86.6264 44.1799 87.9448 41.5667L86.5034 40.7288C86.0991 41.6604 85.5952 42.5979 85.1147 43.4651L82.4721 43.7522C83.8139 41.6604 85.1381 38.9768 86.1225 36.3577L84.4174 35.7366C83.5737 38.6604 81.9448 41.7835 81.4643 42.5745C80.9838 43.3889 80.603 43.9924 80.1928 44.0862C80.3862 44.5198 80.6733 45.3577 80.767 45.6917C81.0776 45.5276 81.6342 45.4045 84.2006 45.0471C83.2631 46.5823 82.4252 47.8069 82.0385 48.2639C81.3706 49.1487 80.8432 49.7522 80.3862 49.846C80.5737 50.2795 80.8139 51.0706 80.8901 51.4045C81.3471 51.1409 82.0913 50.8772 87.3706 49.6526C87.2944 49.3186 87.2475 48.6917 87.2475 48.217L83.2866 49.0315ZM87.2241 51.8616C84.6108 52.8694 81.9917 53.9006 80.2631 54.4573L80.6967 56.1096C82.642 55.3186 85.1381 54.2874 87.5346 53.303L87.2241 51.8616ZM99.5581 39.8381L99.5581 42.4045L90.7983 42.4045L90.7983 39.8381L99.5581 39.8381ZM101.216 43.9163L101.216 38.3264L96.6342 38.3264C96.394 37.5354 95.8901 36.428 95.3862 35.5901L93.7045 36.094C94.0913 36.7678 94.4721 37.6057 94.7358 38.3264L89.1694 38.3264L89.1694 43.512C89.1694 47.1565 88.9526 52.4358 86.7905 56.2561C87.1772 56.4436 87.8745 56.9534 88.1616 57.2639C90.3706 53.3967 90.7749 47.8069 90.7983 43.9163L101.216 43.9163ZM98.2631 50.9241L98.2631 47.4202L100.039 47.4202L100.039 50.9241L98.2631 50.9241ZM95.3393 50.9241L95.3393 47.4202L97.062 47.4202L97.062 50.9241L95.3393 50.9241ZM92.1694 50.9241L92.1694 47.4202L94.1381 47.4202L94.1381 50.9241L92.1694 50.9241ZM100.039 45.9319L100.039 45.9612L90.7514 45.9612L90.7514 57.4573L92.1694 57.4573L92.1694 52.3655L94.1381 52.3655L94.1381 56.8772L95.3393 56.8772L95.3393 52.3655L97.062 52.3655L97.062 56.8538L98.2631 56.8538L98.2631 52.3655L100.039 52.3655L100.039 55.9163C100.039 56.1096 99.9682 56.1565 99.7983 56.1565L98.6733 56.1565C98.8432 56.5198 99.0307 57.094 99.1069 57.4573C99.9213 57.4573 100.496 57.4573 100.906 57.217C101.339 56.9768 101.433 56.5667 101.433 55.9397L101.433 45.9319L100.039 45.9319ZM110.433 53.0393L107.626 53.0393L107.626 45.9612L110.433 45.9612L110.433 53.0393ZM104.503 38.6604L107.433 38.6604C106.783 42.3108 105.681 45.6917 103.999 47.9534C104.286 48.4045 104.697 49.4124 104.814 49.846C105.271 49.2717 105.681 48.6213 106.062 47.9241L106.062 56.5901L107.626 56.5901L107.626 54.6448L112.015 54.6448L112.015 44.3733L107.626 44.3733C108.247 42.5979 108.751 40.6526 109.115 38.6604L112.689 38.6604L112.689 37.0081L104.503 37.0081L104.503 38.6604ZM122.193 50.8772L113.07 50.8772L113.07 52.4885L122.193 52.4885L122.193 50.8772ZM122.72 46.2014C123.13 43.2483 123.488 39.6917 123.681 37.2249L122.433 37.0784L122.169 37.1721L113.867 37.1721L113.867 38.8069L121.859 38.8069C121.665 40.8928 121.355 43.7991 121.062 46.2014L116.07 46.2014C116.286 44.4202 116.527 42.217 116.65 40.3889L114.992 40.2952C114.822 42.6213 114.511 45.7913 114.201 47.7366L123.874 47.7366C123.417 52.9924 122.913 55.1018 122.286 55.7053C122.046 55.9397 121.783 55.9924 121.378 55.9924C120.945 55.9924 119.89 55.9924 118.712 55.846C118.999 56.3264 119.169 57.0003 119.216 57.5042C120.37 57.551 121.449 57.5745 122.07 57.5042C122.79 57.4807 123.224 57.2874 123.704 56.7835C124.542 55.9163 125.099 53.4202 125.626 46.9924C125.65 46.7522 125.673 46.2014 125.673 46.2014L122.72 46.2014ZM137.867 36.1878C137.456 37.1487 136.665 38.5198 136.062 39.3811L137.216 39.9319C137.89 39.1409 138.658 37.9397 139.355 36.8616L137.867 36.1878ZM132.247 39.428C132.007 38.5432 131.363 37.2717 130.689 36.3342L129.394 36.8616C130.038 37.846 130.665 39.1643 130.882 40.0081L132.247 39.428ZM133.425 46.1487L135.077 46.1487L135.077 42.8616C136.232 43.676 137.72 44.8538 138.294 45.4045L139.279 44.1096C138.728 43.7053 136.665 42.3577 135.464 41.6604L139.976 41.6604L139.976 40.1721L135.077 40.1721L135.077 35.7366L133.425 35.7366L133.425 40.1721L128.48 40.1721L128.48 41.6604L132.874 41.6604C131.697 43.2249 129.921 44.6838 128.24 45.4045C128.574 45.7444 129.007 46.342 129.2 46.7522C130.665 45.9846 132.224 44.6604 133.425 43.2483L133.425 46.1487ZM137.07 49.5823C136.542 50.8303 135.775 51.885 134.843 52.7522C133.976 52.3186 133.015 51.8616 132.13 51.4807C132.464 50.9241 132.822 50.2561 133.185 49.5823L137.07 49.5823ZM138.247 54.7444C137.72 54.3577 136.999 53.9241 136.232 53.4963C137.503 52.1487 138.488 50.4729 139.115 48.4045L138.107 48.0003L137.843 48.0706L133.929 48.0706C134.122 47.637 134.263 47.2327 134.433 46.8225L132.851 46.5354C132.681 47.0393 132.464 47.5432 132.224 48.0706L128.984 48.0706L128.984 49.5823L131.48 49.5823C130.976 50.5198 130.449 51.4045 129.945 52.1253C131.122 52.5588 132.417 53.1565 133.618 53.7835C132.054 54.885 130.232 55.6526 128.286 56.0862C128.603 56.4202 128.96 57.0706 129.13 57.4573C131.31 56.8772 133.355 55.9397 135.054 54.5745C135.874 55.0315 136.595 55.512 137.146 55.9163L138.247 54.7444ZM146.574 42.0237C146.216 44.7835 145.642 47.1799 144.775 49.2014C143.867 47.0628 143.193 44.6135 142.736 42.0237L146.574 42.0237ZM149.867 42.0237L149.867 40.3655L143.099 40.3655C143.433 39.0237 143.72 37.6292 143.913 36.217L142.279 35.9768C141.681 40.1253 140.603 44.1331 138.775 46.6526C139.161 46.8928 139.829 47.4436 140.122 47.7366C140.72 46.8225 141.271 45.7678 141.751 44.5901C142.279 46.969 142.952 49.1253 143.867 51.0003C142.519 53.2795 140.65 55.0315 138.054 56.303C138.37 56.637 138.874 57.3577 139.038 57.7444C141.488 56.4202 143.31 54.7444 144.728 52.6526C145.906 54.6917 147.417 56.3264 149.263 57.4573C149.527 57.0003 150.031 56.3967 150.441 56.0628C148.449 55.0081 146.89 53.2327 145.665 51.0471C146.937 48.5745 147.728 45.5979 148.279 42.0237L149.867 42.0237ZM159.681 47.8069L159.441 46.1721L156.945 46.969L156.945 42.217L159.657 42.217L159.657 40.5588L156.945 40.5588L156.945 35.76L155.286 35.76L155.286 40.5588L152.31 40.5588L152.31 42.217L155.286 42.217L155.286 47.4729C154.038 47.8303 152.913 48.1643 152.023 48.428L152.456 50.1331C153.318 49.8694 154.279 49.5823 155.286 49.2483L155.286 55.4124C155.286 55.7756 155.169 55.8694 154.882 55.8694C154.618 55.8694 153.657 55.8694 152.626 55.846C152.866 56.3499 153.077 57.0706 153.154 57.5042C154.665 57.5276 155.573 57.4573 156.13 57.1643C156.728 56.8772 156.945 56.4202 156.945 55.4358L156.945 48.6917L159.681 47.8069ZM162.417 45.5979C162.441 45.0237 162.441 44.5198 162.441 43.9924L162.441 42.9612L167.07 42.9612L167.07 45.5979L162.417 45.5979ZM171.581 38.3499L171.581 41.3967L162.441 41.3967L162.441 38.3499L171.581 38.3499ZM171.751 55.2249L164.386 55.2249L164.386 51.5979L171.751 51.5979L171.751 55.2249ZM174.107 47.1331L174.107 45.5979L168.775 45.5979L168.775 42.9612L173.286 42.9612L173.286 36.7913L160.712 36.7913L160.712 43.9924C160.712 47.7835 160.495 52.9924 158.023 56.6604C158.433 56.8303 159.177 57.3342 159.464 57.6682C161.48 54.721 162.13 50.6838 162.347 47.1331L167.07 47.1331L167.07 50.0862L162.822 50.0862L162.822 57.6917L164.386 57.6917L164.386 56.7131L171.751 56.7131L171.751 57.5979L173.386 57.5979L173.386 50.0862L168.775 50.0862L168.775 47.1331L174.107 47.1331ZM194.263 40.6526C194.069 47.303 193.806 49.7288 193.355 50.303C193.138 50.5901 192.921 50.637 192.558 50.6135C192.153 50.637 191.193 50.6135 190.161 50.5198C190.402 51.0003 190.595 51.721 190.618 52.2249C191.743 52.2952 192.775 52.2952 193.402 52.2249C194.046 52.1487 194.503 51.9612 194.913 51.4045C195.581 50.5432 195.821 47.76 196.091 39.7913L196.091 38.9534L182.843 38.9534C183.37 38.0628 183.874 37.1253 184.302 36.1409L182.503 35.6135C181.114 38.8772 178.759 41.9768 176.122 43.9163C176.573 44.2092 177.271 44.8772 177.61 45.217C179.069 44.0159 180.487 42.4573 181.759 40.6526L194.263 40.6526ZM187.952 44.7366L187.952 48.5979L181.712 48.5979L181.712 44.7366L187.952 44.7366ZM184.712 55.4651C182.169 55.4651 181.712 55.1253 181.712 53.8303L181.712 50.2092L189.704 50.2092L189.704 43.1253L179.96 43.1253L179.96 53.8303C179.96 56.4963 181.062 57.1409 184.806 57.1409L193.859 57.1409C197.099 57.1409 197.814 56.2561 198.177 53.1096C197.673 53.0159 196.905 52.7522 196.472 52.4651C196.208 54.9319 195.874 55.4651 193.829 55.4651L184.712 55.4651Z" fill="#19191A" fill-opacity="1.000000" transform="matrix(1 0 0 1 504.271 14.1406)"/></g><path d="M0 0L278.417 0L278.417 94.084L0 94.084L0 0Z" fill="#FFFFFF" fill-opacity="1.000000" transform="matrix(1 0 0 1 1095.27 14.1406)"/><path d="M0 0L278.417 0L278.417 94.084L0 94.084L0 0Z" fill="none" stroke="#19191A" stroke-opacity="1.000000" stroke-width="2" stroke-dasharray="0 0" transform="matrix(1 0 0 1 1095.27 14.1406)"/><clipPath id="clip_16_32_0"><path d="M1098.09 42.9631L1370.86 42.9631L1370.86 131.402L1098.09 131.402L1098.09 42.9631Z"/></clipPath><g clip-path="url(#clip_16_32_0)"><path d="M74.8433 50.5901L74.8433 47.4202L76.9995 47.4202L76.9995 50.5901L74.8433 50.5901ZM71.3628 50.5901C71.4097 49.7522 71.4331 48.9085 71.4331 48.1643L71.4331 47.4202L73.5425 47.4202L73.5425 50.5901L71.3628 50.5901ZM75.4409 39.2874C75.1538 40.1253 74.7436 41.0628 74.3628 41.7835L71.146 41.7835C71.5737 41.0159 71.9604 40.1487 72.3472 39.2874L75.4409 39.2874ZM74.8433 43.2014L76.9995 43.2014L76.9995 46.0784L74.8433 46.0784L74.8433 43.2014ZM71.4331 43.2014L73.5425 43.2014L73.5425 46.0784L71.4331 46.0784L71.4331 43.2014ZM78.5112 41.7835L76.0151 41.7835C76.5659 40.7756 77.1226 39.551 77.5268 38.4963L76.4487 37.7991L76.1851 37.8694L72.8745 37.8694C73.062 37.2717 73.2554 36.6682 73.4253 36.0706L71.814 35.7366C71.0698 38.6604 69.7515 41.4963 68.0698 43.342C68.4331 43.5823 69.1304 44.1096 69.3706 44.3733C69.5347 44.1565 69.728 43.9397 69.8979 43.7288L69.8979 48.1409C69.8979 50.8303 69.728 54.3811 68.1226 56.9006C68.48 57.0471 69.1772 57.4807 69.4175 57.7444C70.4722 56.1331 70.9761 54.0471 71.2163 52.0081L73.5425 52.0081L73.5425 56.3967L74.8433 56.3967L74.8433 52.0081L76.9995 52.0081L76.9995 55.6057C76.9995 55.8694 76.9292 55.9397 76.6655 55.9397C76.4487 55.9397 75.7749 55.9397 74.937 55.9163C75.1772 56.3499 75.3472 57.0237 75.4175 57.4573C76.6186 57.4573 77.3628 57.428 77.8433 57.1409C78.3706 56.8538 78.5112 56.3967 78.5112 55.6292L78.5112 41.7835ZM87.8218 38.4729C87.6577 41.2561 87.4643 42.3577 87.2241 42.6682C87.0542 42.885 86.8667 42.9085 86.5268 42.885C86.2163 42.885 85.3022 42.885 84.3706 42.7913C84.6108 43.2014 84.7515 43.8225 84.7983 44.2795C85.7827 44.3264 86.7671 44.3499 87.271 44.303C87.8511 44.2561 88.2554 44.0862 88.5659 43.7053C89.0698 43.1253 89.2866 41.5901 89.48 37.6526C89.5034 37.4124 89.5034 36.9612 89.5034 36.9612L79.4487 36.9612L79.4487 38.4729L82.7124 38.4729C82.3022 40.7288 81.3706 42.6448 78.9448 43.7288C79.2788 44.0159 79.7358 44.5901 79.9292 44.9768C82.7593 43.6057 83.8433 41.2795 84.3179 38.4729L87.8218 38.4729ZM90.1538 51.5042L85.9761 51.5042L85.9761 48.5745L89.5503 48.5745L89.5503 47.0393L85.9761 47.0393L85.9761 44.76L84.2944 44.76L84.2944 47.0393L82.2319 47.0393C82.4253 46.3889 82.6186 45.7678 82.7593 45.094L81.2241 44.8069C80.8433 46.8225 80.0991 48.8147 79.062 50.1565C79.4487 50.3264 80.1226 50.6838 80.4331 50.9006C80.9136 50.2561 81.2944 49.4651 81.6811 48.5745L84.2944 48.5745L84.2944 51.5042L79.4722 51.5042L79.4722 53.0628L84.2944 53.0628L84.2944 57.6448L85.9761 57.6448L85.9761 53.0628L90.1538 53.0628L90.1538 51.5042ZM98.433 53.0393L95.6264 53.0393L95.6264 45.9612L98.433 45.9612L98.433 53.0393ZM92.5033 38.6604L95.433 38.6604C94.7826 42.3108 93.6811 45.6917 91.9994 47.9534C92.2865 48.4045 92.6967 49.4124 92.8139 49.846C93.2709 49.2717 93.6811 48.6213 94.0619 47.9241L94.0619 56.5901L95.6264 56.5901L95.6264 54.6448L100.015 54.6448L100.015 44.3733L95.6264 44.3733C96.2475 42.5979 96.7514 40.6526 97.1147 38.6604L100.689 38.6604L100.689 37.0081L92.5033 37.0081L92.5033 38.6604ZM110.193 50.8772L101.07 50.8772L101.07 52.4885L110.193 52.4885L110.193 50.8772ZM110.72 46.2014C111.13 43.2483 111.488 39.6917 111.681 37.2249L110.433 37.0784L110.169 37.1721L101.867 37.1721L101.867 38.8069L109.859 38.8069C109.665 40.8928 109.355 43.7991 109.062 46.2014L104.07 46.2014C104.287 44.4202 104.527 42.217 104.65 40.3889L102.992 40.2952C102.822 42.6213 102.511 45.7913 102.201 47.7366L111.874 47.7366C111.417 52.9924 110.913 55.1018 110.287 55.7053C110.046 55.9397 109.783 55.9924 109.378 55.9924C108.945 55.9924 107.89 55.9924 106.712 55.846C106.999 56.3264 107.169 57.0003 107.216 57.5042C108.371 57.551 109.449 57.5745 110.07 57.5042C110.79 57.4807 111.224 57.2874 111.705 56.7835C112.542 55.9163 113.099 53.4202 113.626 46.9924C113.65 46.7522 113.673 46.2014 113.673 46.2014L110.72 46.2014ZM134.41 49.1487L134.41 54.7913L124.495 54.7913L124.495 49.1487L134.41 49.1487ZM122.72 57.6917L124.495 57.6917L124.495 56.4436L134.41 56.4436L134.41 57.6448L136.255 57.6448L136.255 47.4729L122.72 47.4729L122.72 57.6917ZM120.704 42.3342L120.704 39.3811C126.177 39.0237 132.247 38.3733 136.355 37.3655L134.867 35.9534C131.193 36.8616 124.542 37.5354 118.882 37.8928L118.882 44.0628C118.882 47.76 118.642 52.8694 116.07 56.4963C116.503 56.7131 117.224 57.3342 117.535 57.721C120.271 53.8303 120.704 48.0471 120.704 44.0628L138.031 44.0628L138.031 42.3342L120.704 42.3342ZM149.866 36.1878C149.456 37.1487 148.665 38.5198 148.062 39.3811L149.216 39.9319C149.89 39.1409 150.657 37.9397 151.355 36.8616L149.866 36.1878ZM144.247 39.428C144.007 38.5432 143.363 37.2717 142.689 36.3342L141.394 36.8616C142.038 37.846 142.665 39.1643 142.882 40.0081L144.247 39.428ZM145.425 46.1487L147.077 46.1487L147.077 42.8616C148.232 43.676 149.72 44.8538 150.294 45.4045L151.279 44.1096C150.728 43.7053 148.665 42.3577 147.464 41.6604L151.976 41.6604L151.976 40.1721L147.077 40.1721L147.077 35.7366L145.425 35.7366L145.425 40.1721L140.48 40.1721L140.48 41.6604L144.874 41.6604C143.697 43.2249 141.921 44.6838 140.24 45.4045C140.574 45.7444 141.007 46.342 141.2 46.7522C142.665 45.9846 144.224 44.6604 145.425 43.2483L145.425 46.1487ZM149.07 49.5823C148.542 50.8303 147.775 51.885 146.843 52.7522C145.976 52.3186 145.015 51.8616 144.13 51.4807C144.464 50.9241 144.822 50.2561 145.185 49.5823L149.07 49.5823ZM150.247 54.7444C149.72 54.3577 148.999 53.9241 148.232 53.4963C149.503 52.1487 150.488 50.4729 151.115 48.4045L150.107 48.0003L149.843 48.0706L145.929 48.0706C146.122 47.637 146.263 47.2327 146.433 46.8225L144.851 46.5354C144.681 47.0393 144.464 47.5432 144.224 48.0706L140.984 48.0706L140.984 49.5823L143.48 49.5823C142.976 50.5198 142.449 51.4045 141.945 52.1253C143.122 52.5588 144.417 53.1565 145.618 53.7835C144.054 54.885 142.232 55.6526 140.286 56.0862C140.603 56.4202 140.96 57.0706 141.13 57.4573C143.31 56.8772 145.355 55.9397 147.054 54.5745C147.874 55.0315 148.595 55.512 149.146 55.9163L150.247 54.7444ZM158.574 42.0237C158.216 44.7835 157.642 47.1799 156.775 49.2014C155.866 47.0628 155.193 44.6135 154.736 42.0237L158.574 42.0237ZM161.866 42.0237L161.866 40.3655L155.099 40.3655C155.433 39.0237 155.72 37.6292 155.913 36.217L154.279 35.9768C153.681 40.1253 152.603 44.1331 150.775 46.6526C151.161 46.8928 151.829 47.4436 152.122 47.7366C152.72 46.8225 153.271 45.7678 153.751 44.5901C154.279 46.969 154.952 49.1253 155.866 51.0003C154.519 53.2795 152.65 55.0315 150.054 56.303C150.37 56.637 150.874 57.3577 151.038 57.7444C153.488 56.4202 155.31 54.7444 156.728 52.6526C157.906 54.6917 159.417 56.3264 161.263 57.4573C161.527 57.0003 162.031 56.3967 162.441 56.0628C160.449 55.0081 158.89 53.2327 157.665 51.0471C158.937 48.5745 159.728 45.5979 160.279 42.0237L161.866 42.0237ZM171.681 47.8069L171.441 46.1721L168.945 46.969L168.945 42.217L171.657 42.217L171.657 40.5588L168.945 40.5588L168.945 35.76L167.286 35.76L167.286 40.5588L164.31 40.5588L164.31 42.217L167.286 42.217L167.286 47.4729C166.038 47.8303 164.913 48.1643 164.023 48.428L164.456 50.1331C165.318 49.8694 166.279 49.5823 167.286 49.2483L167.286 55.4124C167.286 55.7756 167.169 55.8694 166.882 55.8694C166.618 55.8694 165.657 55.8694 164.626 55.846C164.866 56.3499 165.077 57.0706 165.154 57.5042C166.665 57.5276 167.573 57.4573 168.13 57.1643C168.728 56.8772 168.945 56.4202 168.945 55.4358L168.945 48.6917L171.681 47.8069ZM174.417 45.5979C174.441 45.0237 174.441 44.5198 174.441 43.9924L174.441 42.9612L179.07 42.9612L179.07 45.5979L174.417 45.5979ZM183.581 38.3499L183.581 41.3967L174.441 41.3967L174.441 38.3499L183.581 38.3499ZM183.751 55.2249L176.386 55.2249L176.386 51.5979L183.751 51.5979L183.751 55.2249ZM186.107 47.1331L186.107 45.5979L180.775 45.5979L180.775 42.9612L185.286 42.9612L185.286 36.7913L172.712 36.7913L172.712 43.9924C172.712 47.7835 172.495 52.9924 170.023 56.6604C170.433 56.8303 171.177 57.3342 171.464 57.6682C173.48 54.721 174.13 50.6838 174.347 47.1331L179.07 47.1331L179.07 50.0862L174.821 50.0862L174.821 57.6917L176.386 57.6917L176.386 56.7131L183.751 56.7131L183.751 57.5979L185.386 57.5979L185.386 50.0862L180.775 50.0862L180.775 47.1331L186.107 47.1331ZM200.433 43.1721L207.007 43.1721L207.007 52.7756L208.642 52.7756L208.642 41.6135L204.487 41.6135L204.487 39.5042L209.843 39.5042L209.843 37.8694L204.487 37.8694L204.487 35.8069L202.759 35.8069L202.759 41.6135L198.874 41.6135L198.874 52.8225L200.433 52.8225L200.433 43.1721ZM197.192 40.2717L193.882 40.2717L193.882 35.7835L192.347 35.7835L192.347 40.2717L189.107 40.2717L189.107 52.7522L190.495 52.7522L190.495 41.8772L192.347 41.8772L192.347 57.6682L193.882 57.6682L193.882 41.8772L195.798 41.8772L195.798 50.7366C195.798 50.9534 195.751 51.0003 195.587 51.0237C195.394 51.0237 194.96 51.0237 194.362 51.0003C194.626 51.428 194.843 52.1253 194.866 52.5823C195.704 52.5823 196.255 52.5588 196.665 52.2483C197.099 51.9612 197.192 51.4807 197.192 50.7835L197.192 40.2717ZM204.61 44.8538L202.929 44.8538L202.929 49.1253C202.929 51.4807 202.325 54.4573 196.595 56.2795C196.952 56.637 197.433 57.2639 197.626 57.6917C203.673 55.512 204.61 52.1018 204.61 49.1253L204.61 44.8538ZM204.054 54.3577C205.806 55.2952 207.991 56.7131 209.069 57.721L210.054 56.4436C208.952 55.4885 206.72 54.1174 205.015 53.2327L204.054 54.3577Z" fill="#19191A" fill-opacity="1.000000" transform="matrix(1 0 0 1 1095.27 14.1406)"/></g><path d="M0 0L278.417 0L278.417 94.084L0 94.084L0 0Z" fill="#FFFFFF" fill-opacity="1.000000" transform="matrix(1 0 0 1 1095.27 320.162)"/><path d="M0 0L278.417 0L278.417 94.084L0 94.084L0 0Z" fill="none" stroke="#19191A" stroke-opacity="1.000000" stroke-width="2" stroke-dasharray="0 0" transform="matrix(1 0 0 1 1095.27 320.162)"/><clipPath id="clip_16_33_0"><path d="M1098.09 348.985L1370.86 348.985L1370.86 437.424L1098.09 437.424L1098.09 348.985Z"/></clipPath><g clip-path="url(#clip_16_33_0)"><path d="M71.8433 43.3889C73.4722 45.2639 75.2007 47.5198 76.0386 48.9612L77.6031 48.0003C76.5425 46.2952 74.2867 43.6057 72.4409 41.6604L71.8433 41.9768L71.8433 35.7835L69.9683 35.7835L69.9683 53.3264L71.8433 53.3264L71.8433 43.3889ZM65.4566 41.1799C64.9995 44.5432 64.1851 47.2795 63.0308 49.5354C62.0699 47.9006 61.2554 45.8381 60.6577 43.2014C60.898 42.551 61.1148 41.8538 61.3023 41.1799L65.4566 41.1799ZM66.271 39.4573L65.937 39.5276L61.7359 39.5276C61.9995 38.4729 62.2398 37.3889 62.4097 36.3108L60.5581 35.8303C59.9136 40.512 58.4488 45.0237 56.5503 47.5198C57.0074 47.7366 57.6577 48.217 57.9917 48.5042C58.6187 47.6604 59.1929 46.676 59.7202 45.551C60.3472 47.8303 61.1617 49.676 62.0699 51.1409C60.5113 53.4963 58.5191 55.1487 56.146 56.303C56.5738 56.5667 57.271 57.2874 57.5874 57.6682C59.7671 56.5432 61.6656 54.9319 63.2242 52.7288C66.107 56.1799 69.9683 56.9241 74.0464 56.9241L77.5503 56.9241C77.6499 56.4202 77.9839 55.5354 78.271 55.0784C77.3394 55.1018 74.8667 55.1018 74.146 55.1018C70.4722 55.1018 66.898 54.4573 64.1851 51.1643C65.7906 48.2874 66.9214 44.5667 67.4488 39.8147L66.271 39.4573ZM87.6811 51.0003L85.062 51.8616L85.062 45.9319L87.4877 45.9319L87.4877 44.2561L85.062 44.2561L85.062 39.0471L87.8217 39.0471L87.8217 37.3655L80.3862 37.3655L80.3862 39.0471L83.3627 39.0471L83.3627 44.2561L80.6264 44.2561L80.6264 45.9319L83.3627 45.9319L83.3627 52.3889C82.1381 52.7991 81.0307 53.1331 80.146 53.3967L80.5502 55.2014C82.6889 54.5042 85.4252 53.5667 87.9917 52.7053L87.6811 51.0003ZM90.6342 42.885L94.2788 42.885L94.2788 45.9612L90.6342 45.9612L90.6342 42.885ZM90.6342 38.3967L94.2788 38.3967L94.2788 41.4202L90.6342 41.4202L90.6342 38.3967ZM99.4877 41.4202L95.8139 41.4202L95.8139 38.3967L99.4877 38.3967L99.4877 41.4202ZM99.4877 45.9612L95.8139 45.9612L95.8139 42.885L99.4877 42.885L99.4877 45.9612ZM95.9604 55.2483L95.9604 51.9612L101.55 51.9612L101.55 50.3264L95.9604 50.3264L95.9604 47.5198L101.193 47.5198L101.193 36.8381L88.9995 36.8381L88.9995 47.5198L94.1616 47.5198L94.1616 50.3264L88.7124 50.3264L88.7124 51.9612L94.1616 51.9612L94.1616 55.2483L86.8667 55.2483L86.8667 56.8772L102.318 56.8772L102.318 55.2483L95.9604 55.2483ZM122.41 49.1487L122.41 54.7913L112.495 54.7913L112.495 49.1487L122.41 49.1487ZM110.72 57.6917L112.495 57.6917L112.495 56.4436L122.41 56.4436L122.41 57.6448L124.255 57.6448L124.255 47.4729L110.72 47.4729L110.72 57.6917ZM108.704 42.3342L108.704 39.3811C114.177 39.0237 120.247 38.3733 124.355 37.3655L122.867 35.9534C119.193 36.8616 112.542 37.5354 106.882 37.8928L106.882 44.0628C106.882 47.76 106.642 52.8694 104.07 56.4963C104.503 56.7131 105.224 57.3342 105.535 57.721C108.271 53.8303 108.704 48.0471 108.704 44.0628L126.031 44.0628L126.031 42.3342L108.704 42.3342ZM136.038 46.2014L130.999 46.2014L130.999 41.1799L136.038 41.1799L136.038 46.2014ZM130.999 53.5432L130.999 47.7835L136.038 47.7835L136.038 53.5432L130.999 53.5432ZM133.015 35.6838C132.851 36.8147 132.417 38.4202 132.054 39.5745L129.37 39.5745L129.37 57.0471L130.999 57.0471L130.999 55.1487L137.673 55.1487L137.673 39.5745L133.689 39.5745C134.099 38.5432 134.527 37.2249 134.937 36.0471L133.015 35.6838ZM149.409 39.5042L142.232 39.5042C142.642 38.3733 142.976 37.2249 143.263 36.0471L141.558 35.637C140.79 38.9241 139.495 42.2405 137.89 44.3499C138.271 44.5901 139.038 45.0706 139.355 45.3577C140.193 44.2327 140.937 42.7678 141.611 41.1565L147.704 41.1565C147.394 50.7131 147.031 54.3577 146.24 55.2014C145.999 55.512 145.736 55.5588 145.255 55.5588C144.704 55.5588 143.263 55.5588 141.704 55.4124C142.038 55.9163 142.255 56.637 142.302 57.1643C143.65 57.2405 145.015 57.2874 145.859 57.1878C146.673 57.1174 147.224 56.9006 147.751 56.2327C148.712 55.0549 149.023 51.3577 149.409 40.4124L149.409 39.5042ZM145.618 50.303C144.851 48.885 143.193 46.5823 141.851 44.8772L140.456 45.6917C141.775 47.4202 143.386 49.7991 144.107 51.2405L145.618 50.303ZM161.866 36.1878C161.456 37.1487 160.665 38.5198 160.062 39.3811L161.216 39.9319C161.89 39.1409 162.657 37.9397 163.355 36.8616L161.866 36.1878ZM156.247 39.428C156.007 38.5432 155.363 37.2717 154.689 36.3342L153.394 36.8616C154.038 37.846 154.665 39.1643 154.882 40.0081L156.247 39.428ZM157.425 46.1487L159.077 46.1487L159.077 42.8616C160.232 43.676 161.72 44.8538 162.294 45.4045L163.279 44.1096C162.728 43.7053 160.665 42.3577 159.464 41.6604L163.976 41.6604L163.976 40.1721L159.077 40.1721L159.077 35.7366L157.425 35.7366L157.425 40.1721L152.48 40.1721L152.48 41.6604L156.874 41.6604C155.697 43.2249 153.921 44.6838 152.239 45.4045C152.573 45.7444 153.007 46.342 153.2 46.7522C154.665 45.9846 156.224 44.6604 157.425 43.2483L157.425 46.1487ZM161.07 49.5823C160.542 50.8303 159.775 51.885 158.843 52.7522C157.976 52.3186 157.015 51.8616 156.13 51.4807C156.464 50.9241 156.822 50.2561 157.185 49.5823L161.07 49.5823ZM162.247 54.7444C161.72 54.3577 160.999 53.9241 160.232 53.4963C161.503 52.1487 162.488 50.4729 163.114 48.4045L162.107 48.0003L161.843 48.0706L157.929 48.0706C158.122 47.637 158.263 47.2327 158.433 46.8225L156.851 46.5354C156.681 47.0393 156.464 47.5432 156.224 48.0706L152.984 48.0706L152.984 49.5823L155.48 49.5823C154.976 50.5198 154.448 51.4045 153.945 52.1253C155.122 52.5588 156.417 53.1565 157.618 53.7835C156.054 54.885 154.232 55.6526 152.286 56.0862C152.603 56.4202 152.96 57.0706 153.13 57.4573C155.31 56.8772 157.355 55.9397 159.054 54.5745C159.874 55.0315 160.595 55.512 161.146 55.9163L162.247 54.7444ZM170.573 42.0237C170.216 44.7835 169.642 47.1799 168.775 49.2014C167.866 47.0628 167.193 44.6135 166.736 42.0237L170.573 42.0237ZM173.866 42.0237L173.866 40.3655L167.099 40.3655C167.433 39.0237 167.72 37.6292 167.913 36.217L166.279 35.9768C165.681 40.1253 164.603 44.1331 162.775 46.6526C163.161 46.8928 163.829 47.4436 164.122 47.7366C164.72 46.8225 165.271 45.7678 165.751 44.5901C166.279 46.969 166.952 49.1253 167.866 51.0003C166.519 53.2795 164.65 55.0315 162.054 56.303C162.37 56.637 162.874 57.3577 163.038 57.7444C165.488 56.4202 167.31 54.7444 168.728 52.6526C169.906 54.6917 171.417 56.3264 173.263 57.4573C173.527 57.0003 174.031 56.3967 174.441 56.0628C172.448 55.0081 170.89 53.2327 169.665 51.0471C170.937 48.5745 171.728 45.5979 172.279 42.0237L173.866 42.0237ZM183.681 47.8069L183.441 46.1721L180.944 46.969L180.944 42.217L183.657 42.217L183.657 40.5588L180.944 40.5588L180.944 35.76L179.286 35.76L179.286 40.5588L176.31 40.5588L176.31 42.217L179.286 42.217L179.286 47.4729C178.038 47.8303 176.913 48.1643 176.023 48.428L176.456 50.1331C177.318 49.8694 178.278 49.5823 179.286 49.2483L179.286 55.4124C179.286 55.7756 179.169 55.8694 178.882 55.8694C178.618 55.8694 177.657 55.8694 176.626 55.846C176.866 56.3499 177.077 57.0706 177.153 57.5042C178.665 57.5276 179.573 57.4573 180.13 57.1643C180.728 56.8772 180.944 56.4202 180.944 55.4358L180.944 48.6917L183.681 47.8069ZM186.417 45.5979C186.441 45.0237 186.441 44.5198 186.441 43.9924L186.441 42.9612L191.069 42.9612L191.069 45.5979L186.417 45.5979ZM195.581 38.3499L195.581 41.3967L186.441 41.3967L186.441 38.3499L195.581 38.3499ZM195.751 55.2249L188.386 55.2249L188.386 51.5979L195.751 51.5979L195.751 55.2249ZM198.107 47.1331L198.107 45.5979L192.775 45.5979L192.775 42.9612L197.286 42.9612L197.286 36.7913L184.712 36.7913L184.712 43.9924C184.712 47.7835 184.495 52.9924 182.023 56.6604C182.433 56.8303 183.177 57.3342 183.464 57.6682C185.48 54.721 186.13 50.6838 186.347 47.1331L191.069 47.1331L191.069 50.0862L186.821 50.0862L186.821 57.6917L188.386 57.6917L188.386 56.7131L195.751 56.7131L195.751 57.5979L197.386 57.5979L197.386 50.0862L192.775 50.0862L192.775 47.1331L198.107 47.1331ZM212.433 43.1721L219.007 43.1721L219.007 52.7756L220.642 52.7756L220.642 41.6135L216.487 41.6135L216.487 39.5042L221.843 39.5042L221.843 37.8694L216.487 37.8694L216.487 35.8069L214.759 35.8069L214.759 41.6135L210.874 41.6135L210.874 52.8225L212.433 52.8225L212.433 43.1721ZM209.192 40.2717L205.882 40.2717L205.882 35.7835L204.347 35.7835L204.347 40.2717L201.107 40.2717L201.107 52.7522L202.495 52.7522L202.495 41.8772L204.347 41.8772L204.347 57.6682L205.882 57.6682L205.882 41.8772L207.798 41.8772L207.798 50.7366C207.798 50.9534 207.751 51.0003 207.587 51.0237C207.394 51.0237 206.96 51.0237 206.362 51.0003C206.626 51.428 206.843 52.1253 206.866 52.5823C207.704 52.5823 208.255 52.5588 208.665 52.2483C209.099 51.9612 209.192 51.4807 209.192 50.7835L209.192 40.2717ZM216.61 44.8538L214.929 44.8538L214.929 49.1253C214.929 51.4807 214.325 54.4573 208.595 56.2795C208.952 56.637 209.433 57.2639 209.626 57.6917C215.673 55.512 216.61 52.1018 216.61 49.1253L216.61 44.8538ZM216.054 54.3577C217.806 55.2952 219.991 56.7131 221.069 57.721L222.054 56.4436C220.952 55.4885 218.72 54.1174 217.015 53.2327L216.054 54.3577Z" fill="#19191A" fill-opacity="1.000000" transform="matrix(1 0 0 1 1095.27 320.162)"/></g><path d="M0 0L278.417 0L278.417 94.084L0 94.084L0 0Z" fill="#FFFFFF" fill-opacity="1.000000" transform="matrix(1 0 0 1 14.1406 320.162)"/><path d="M0 0L278.417 0L278.417 94.084L0 94.084L0 0Z" fill="none" stroke="#19191A" stroke-opacity="1.000000" stroke-width="2" stroke-dasharray="0 0" transform="matrix(1 0 0 1 14.1406 320.162)"/><clipPath id="clip_16_35_0"><path d="M16.9631 348.985L289.735 348.985L289.735 437.424L16.9631 437.424L16.9631 348.985Z"/></clipPath><g clip-path="url(#clip_16_35_0)"><path d="M99.9213 50.0628L98.099 50.4963L98.099 47.5432L99.9916 47.5432L99.9916 45.9085L98.099 45.9085L98.099 42.3342L96.5346 42.3342L96.5346 45.9085L94.4486 45.9085C95.0463 44.2561 95.6498 42.2874 96.1303 40.2483L100.038 40.2483L100.038 38.6135L96.4877 38.6135C96.6576 37.7522 96.8217 36.885 96.9447 36.0471L95.2865 35.7835C95.1928 36.7444 95.0463 37.676 94.8822 38.6135L92.4096 38.6135L92.4096 40.2483L94.5424 40.2483C94.1615 42.217 93.6811 43.8225 93.4643 44.4436C93.1303 45.5042 92.8432 46.2717 92.4565 46.3889C92.6498 46.7756 92.9135 47.5667 92.9838 47.9006C93.2006 47.6838 93.8979 47.5432 94.6654 47.5432L96.5346 47.5432L96.5346 50.8538C94.9291 51.217 93.4643 51.5745 92.31 51.7913L92.6967 53.4436C93.8217 53.1799 95.1459 52.846 96.5346 52.4885L96.5346 57.6448L98.099 57.6448L98.099 52.0784L100.062 51.5745L99.9213 50.0628ZM102.658 51.3108L102.658 49.342L105.945 49.342L105.945 51.3108L102.658 51.3108ZM105.945 46.1018L105.945 47.9768L102.658 47.9768L102.658 46.1018L105.945 46.1018ZM107.433 44.6604L101.193 44.6604L101.193 57.5745L102.658 57.5745L102.658 52.6526L105.945 52.6526L105.945 55.7756C105.945 55.9924 105.898 56.0393 105.681 56.0628C105.464 56.0628 104.843 56.0628 104.099 56.0393C104.31 56.4729 104.503 57.094 104.55 57.5276C105.581 57.5276 106.326 57.5042 106.806 57.2405C107.31 56.9768 107.433 56.5432 107.433 55.7756L107.433 44.6604ZM111.822 55.6292C111.822 55.9163 111.728 55.9924 111.441 55.9924C111.13 56.0159 110.193 56.0159 109.091 55.9924C109.326 56.4202 109.496 57.0471 109.566 57.4573C110.984 57.4573 111.921 57.428 112.519 57.1643C113.099 56.9241 113.263 56.4963 113.263 55.6292L113.263 44.2327L111.822 44.2327L111.822 55.6292ZM110.169 45.094L108.775 45.094L108.775 53.7131L110.169 53.7131L110.169 45.094ZM103.302 41.6135C104.673 40.6526 105.921 39.5042 106.999 38.2561C108.201 39.5979 109.542 40.676 111.007 41.6135L103.302 41.6135ZM106.976 35.6604C105.417 38.1799 102.464 40.5354 99.5873 41.8772C99.9916 42.2405 100.472 42.7913 100.736 43.2014C101.386 42.8616 102.031 42.4807 102.658 42.0706L102.658 43.0784L111.488 43.0784L111.488 41.9241C112.091 42.2874 112.712 42.6213 113.363 42.9612C113.603 42.4573 114.078 41.9241 114.488 41.5667C111.992 40.4885 109.712 39.1409 107.913 37.1018C108.107 36.8381 108.271 36.5745 108.441 36.3342L106.976 35.6604ZM134.697 47.6604L134.697 54.5042L128.122 54.5042L128.122 46.1487L135.681 46.1487L135.681 37.9163L133.759 37.9163L133.759 44.3967L128.122 44.3967L128.122 35.76L126.201 35.76L126.201 44.3967L120.704 44.3967L120.704 37.9397L118.859 37.9397L118.859 46.1487L126.201 46.1487L126.201 54.5042L119.72 54.5042L119.72 47.6604L117.798 47.6604L117.798 56.2561L134.697 56.2561L134.697 57.6213L136.618 57.6213L136.618 47.6604L134.697 47.6604ZM153.077 39.2874C152.743 38.2795 151.929 36.7444 151.208 35.6135L149.363 36.1409C150.077 37.3186 150.851 38.9241 151.138 39.9085L153.077 39.2874ZM156.224 41.7131C155.023 44.9534 153.417 47.5901 151.279 49.7522C149.023 47.4963 147.294 44.76 146.046 41.7131L156.224 41.7131ZM162.007 41.7131L162.007 39.9612L140.503 39.9612L140.503 41.7131L144.2 41.7131C145.595 45.3342 147.488 48.4573 149.96 51.0003C147.347 53.2092 144.13 54.8381 140.169 55.969C140.527 56.3733 141.054 57.1878 141.271 57.6213C145.255 56.3499 148.566 54.6213 151.255 52.2717C153.921 54.6682 157.185 56.4202 161.099 57.5276C161.386 57.0237 161.89 56.2795 162.318 55.8694C158.503 54.9319 155.263 53.2327 152.626 51.0003C155.023 48.5276 156.874 45.5042 158.24 41.7131L162.007 41.7131ZM169.689 35.8303C168.417 39.4573 166.302 43.0315 164.07 45.3577C164.386 45.7678 164.913 46.676 165.077 47.1096C165.821 46.2717 166.595 45.3342 167.286 44.303L167.286 57.6213L168.991 57.6213L168.991 41.5432C169.905 39.885 170.696 38.1096 171.37 36.3577L169.689 35.8303ZM185.96 47.637L179.456 47.637L179.456 42.3811L184.929 42.3811L184.929 40.6292L179.456 40.6292L179.456 36.0471L177.681 36.0471L177.681 40.6292L174.487 40.6292C174.798 39.551 175.062 38.4202 175.279 37.2952L173.603 36.9319C173.046 40.0315 172.062 43.1487 170.65 45.1174C171.107 45.3342 171.851 45.7678 172.185 46.0315C172.829 45.0237 173.409 43.7756 173.913 42.3811L177.681 42.3811L177.681 47.637L170.843 47.637L170.843 49.3889L177.681 49.3889L177.681 57.6682L179.456 57.6682L179.456 49.3889L185.96 49.3889L185.96 47.637Z" fill="#19191A" fill-opacity="1.000000" transform="matrix(1 0 0 1 14.1406 320.162)"/></g><path d="M211.713 0L201.321 -6L201.321 6L211.713 0Z" transform="matrix(1 0 0 1 292.558 61.1826)" fill="#F79780" fill-opacity="1.000000" stroke="none"/><path d="M0 0L205.713 0" fill="none" stroke="#F79780" stroke-opacity="1.000000" stroke-width="2" stroke-dasharray="0 0" transform="matrix(1 0 0 1 292.558 61.1826)"/><path d="M56.3203 -18L155.392 -18L155.392 18L56.3203 18L56.3203 -18Z" stroke-opacity="0" fill-opacity="1.000000" fill="#FFFFFF" transform="matrix(1 0 0 1 292.558 61.1826)"/><path d="M62.9707 9.31055C64.5293 9.31055 65.8946 8.47266 66.9258 7.46484L66.9785 7.46484L67.1895 9L68.9707 9L68.9707 -10.1016L66.7852 -10.1016L66.7852 -5.08594L66.9024 -2.83008C65.7539 -3.79102 64.7696 -4.36523 63.2344 -4.36523C60.2578 -4.36523 57.5918 -1.72852 57.5918 2.49609C57.5918 6.83789 59.7071 9.31055 62.9707 9.31055ZM63.4512 7.48828C61.1426 7.48828 59.8477 5.61328 59.8477 2.47266C59.8477 -0.503906 61.5059 -2.51953 63.6153 -2.51953C64.6992 -2.51953 65.6778 -2.13867 66.7852 -1.1543L66.7852 5.68945C65.7071 6.89062 64.6465 7.48828 63.4512 7.48828ZM78.6651 9.31055C80.4405 9.31055 81.8351 8.71289 82.9835 7.96875L82.1925 6.52734C81.2316 7.17773 80.2003 7.55859 78.9288 7.55859C76.4562 7.55859 74.7511 5.7832 74.6105 3L83.3937 3C83.4405 2.68945 83.4874 2.23242 83.4874 1.75195C83.4874 -1.96875 81.6183 -4.36523 78.3019 -4.36523C75.2784 -4.36523 72.4249 -1.72852 72.4249 2.49609C72.4249 6.79102 75.2081 9.31055 78.6651 9.31055ZM74.587 1.44141C74.8507 -1.13086 76.4796 -2.61328 78.3312 -2.61328C80.3702 -2.61328 81.5655 -1.20117 81.5655 1.44141L74.587 1.44141ZM86.7052 9L88.8908 9L88.8908 -0.457031C90.0861 -1.79883 91.1935 -2.44922 92.1779 -2.44922C93.8302 -2.44922 94.5978 -1.41797 94.5978 1.03125L94.5978 9L96.7834 9L96.7834 -0.457031C98.008 -1.79883 99.0627 -2.44922 100.07 -2.44922C101.729 -2.44922 102.496 -1.41797 102.496 1.03125L102.496 9L104.682 9L104.682 0.744141C104.682 -2.58984 103.41 -4.36523 100.721 -4.36523C99.1388 -4.36523 97.7677 -3.33398 96.4259 -1.86914C95.8986 -3.41016 94.8146 -4.36523 92.8224 -4.36523C91.2638 -4.36523 89.8986 -3.38672 88.7677 -2.13867L88.6974 -2.13867L88.5041 -4.03125L86.7052 -4.03125L86.7052 9ZM112.72 9.31055C114.519 9.31055 115.814 8.37891 117.039 6.96094L117.115 6.96094L117.279 9L119.107 9L119.107 -4.03125L116.921 -4.03125L116.921 5.20898C115.673 6.76758 114.736 7.41797 113.394 7.41797C111.666 7.41797 110.945 6.38672 110.945 3.96094L110.945 -4.03125L108.759 -4.03125L108.759 4.22461C108.759 7.53516 109.984 9.31055 112.72 9.31055ZM121.646 9L123.954 9L125.706 5.95312C126.157 5.16211 126.591 4.36523 127.048 3.62109L127.171 3.62109C127.646 4.36523 128.126 5.16211 128.56 5.95312L130.482 9L132.878 9L128.583 2.42578L132.544 -4.03125L130.265 -4.03125L128.653 -1.1543C128.273 -0.433594 127.886 0.287109 127.482 1.00781L127.382 1.00781C126.954 0.287109 126.497 -0.433594 126.087 -1.1543L124.335 -4.03125L121.985 -4.03125L125.946 2.20898L121.646 9ZM140.249 9.31055C142.024 9.31055 143.419 8.71289 144.567 7.96875L143.776 6.52734C142.815 7.17773 141.784 7.55859 140.513 7.55859C138.04 7.55859 136.335 5.7832 136.194 3L144.977 3C145.024 2.68945 145.071 2.23242 145.071 1.75195C145.071 -1.96875 143.202 -4.36523 139.886 -4.36523C136.862 -4.36523 134.009 -1.72852 134.009 2.49609C134.009 6.79102 136.792 9.31055 140.249 9.31055ZM136.171 1.44141C136.435 -1.13086 138.063 -2.61328 139.915 -2.61328C141.954 -2.61328 143.149 -1.20117 143.149 1.44141L136.171 1.44141ZM148.289 9L150.475 9L150.475 0.621094C151.336 -1.60547 152.678 -2.37891 153.762 -2.37891C154.289 -2.37891 154.6 -2.32617 155.033 -2.16211L155.438 -4.07812C155.033 -4.29492 154.623 -4.36523 154.049 -4.36523C152.584 -4.36523 151.266 -3.31055 150.352 -1.6582L150.281 -1.6582L150.088 -4.03125L148.289 -4.03125L148.289 9Z" fill="#D64A43" fill-opacity="1.000000" transform="matrix(1 0 0 1 292.558 61.1826)"/><path d="M312.583 0L302.191 -6L302.191 6L312.583 0Z" transform="matrix(1 0 0 1 782.687 61.1826)" fill="#F79780" fill-opacity="1.000000" stroke="none"/><path d="M0 0L306.583 0" fill="none" stroke="#F79780" stroke-opacity="1.000000" stroke-width="2" stroke-dasharray="0 0" transform="matrix(1 0 0 1 782.687 61.1826)"/><path d="M110.351 -18L202.199 -18L202.199 18L110.351 18L110.351 -18Z" stroke-opacity="0" fill-opacity="1.000000" fill="#FFFFFF" transform="matrix(1 0 0 1 782.687 61.1826)"/><path d="M117.001 9.31055C118.56 9.31055 119.925 8.47266 120.956 7.46484L121.009 7.46484L121.22 9L123.001 9L123.001 -10.1016L120.816 -10.1016L120.816 -5.08594L120.933 -2.83008C119.784 -3.79102 118.8 -4.36523 117.265 -4.36523C114.288 -4.36523 111.622 -1.72852 111.622 2.49609C111.622 6.83789 113.738 9.31055 117.001 9.31055ZM117.482 7.48828C115.173 7.48828 113.878 5.61328 113.878 2.47266C113.878 -0.503906 115.536 -2.51953 117.646 -2.51953C118.73 -2.51953 119.708 -2.13867 120.816 -1.1543L120.816 5.68945C119.738 6.89062 118.677 7.48828 117.482 7.48828ZM132.696 9.31055C134.471 9.31055 135.866 8.71289 137.014 7.96875L136.223 6.52734C135.262 7.17773 134.231 7.55859 132.959 7.55859C130.487 7.55859 128.782 5.7832 128.641 3L137.424 3C137.471 2.68945 137.518 2.23242 137.518 1.75195C137.518 -1.96875 135.649 -4.36523 132.332 -4.36523C129.309 -4.36523 126.455 -1.72852 126.455 2.49609C126.455 6.79102 129.239 9.31055 132.696 9.31055ZM128.618 1.44141C128.881 -1.13086 130.51 -2.61328 132.362 -2.61328C134.401 -2.61328 135.596 -1.20117 135.596 1.44141L128.618 1.44141ZM145.869 9.31055C147.433 9.31055 148.921 8.71289 150.07 7.6582L149.132 6.19336C148.318 6.9375 147.263 7.48828 146.062 7.48828C143.665 7.48828 142.031 5.49609 142.031 2.49609C142.031 -0.503906 143.759 -2.54297 146.109 -2.54297C147.169 -2.54297 147.96 -2.0625 148.728 -1.36523L149.853 -2.83008C148.921 -3.65039 147.744 -4.36523 146.039 -4.36523C142.705 -4.36523 139.751 -1.8457 139.751 2.49609C139.751 6.81445 142.417 9.31055 145.869 9.31055ZM157.438 9.31055C160.632 9.31055 163.485 6.81445 163.485 2.49609C163.485 -1.8457 160.632 -4.36523 157.438 -4.36523C154.245 -4.36523 151.391 -1.8457 151.391 2.49609C151.391 6.81445 154.245 9.31055 157.438 9.31055ZM157.438 7.48828C155.182 7.48828 153.671 5.49609 153.671 2.49609C153.671 -0.503906 155.182 -2.54297 157.438 -2.54297C159.694 -2.54297 161.229 -0.503906 161.229 2.49609C161.229 5.49609 159.694 7.48828 157.438 7.48828ZM171.361 9.31055C172.92 9.31055 174.285 8.47266 175.316 7.46484L175.369 7.46484L175.58 9L177.361 9L177.361 -10.1016L175.176 -10.1016L175.176 -5.08594L175.293 -2.83008C174.144 -3.79102 173.16 -4.36523 171.625 -4.36523C168.648 -4.36523 165.982 -1.72852 165.982 2.49609C165.982 6.83789 168.097 9.31055 171.361 9.31055ZM171.842 7.48828C169.533 7.48828 168.238 5.61328 168.238 2.47266C168.238 -0.503906 169.896 -2.51953 172.006 -2.51953C173.09 -2.51953 174.068 -2.13867 175.176 -1.1543L175.176 5.68945C174.097 6.89062 173.037 7.48828 171.842 7.48828ZM187.056 9.31055C188.831 9.31055 190.225 8.71289 191.374 7.96875L190.583 6.52734C189.622 7.17773 188.591 7.55859 187.319 7.55859C184.847 7.55859 183.141 5.7832 183.001 3L191.784 3C191.831 2.68945 191.878 2.23242 191.878 1.75195C191.878 -1.96875 190.009 -4.36523 186.692 -4.36523C183.669 -4.36523 180.815 -1.72852 180.815 2.49609C180.815 6.79102 183.598 9.31055 187.056 9.31055ZM182.977 1.44141C183.241 -1.13086 184.87 -2.61328 186.722 -2.61328C188.761 -2.61328 189.956 -1.20117 189.956 1.44141L182.977 1.44141ZM195.096 9L197.281 9L197.281 0.621094C198.143 -1.60547 199.484 -2.37891 200.568 -2.37891C201.096 -2.37891 201.406 -2.32617 201.84 -2.16211L202.244 -4.07812C201.84 -4.29492 201.43 -4.36523 200.855 -4.36523C199.391 -4.36523 198.072 -3.31055 197.158 -1.6582L197.088 -1.6582L196.894 -4.03125L195.096 -4.03125L195.096 9Z" fill="#D64A43" fill-opacity="1.000000" transform="matrix(1 0 0 1 782.687 61.1826)"/><path d="M0 211.938L6 201.546L-6 201.546L0 211.938Z" transform="matrix(1 0 0 1 1234.48 108.225)" fill="#F79780" fill-opacity="1.000000" stroke="none"/><path d="M0 0L0 205.938" fill="none" stroke="#F79780" stroke-opacity="1.000000" stroke-width="2" stroke-dasharray="0 0" transform="matrix(1 0 0 1 1234.48 108.225)"/><path d="M-70.6198 87.9685L9.49197 87.9685L9.49197 123.969L-70.6198 123.969L-70.6198 87.9685Z" stroke-opacity="0" fill-opacity="1.000000" fill="#FFFFFF" transform="matrix(1 0 0 1 1234.48 108.225)"/><path d="M9.49197 87.9685L70.6198 87.9685L70.6198 123.969L9.49197 123.969L9.49197 87.9685Z" stroke-opacity="0" fill-opacity="1.000000" fill="#FFFFFF" transform="matrix(1 0 0 1 1234.48 108.225)"/><path d="M-57.3952 102.318L-50.8209 102.318L-50.8209 111.922L-49.1862 111.922L-49.1862 100.76L-53.3405 100.76L-53.3405 98.6502L-47.985 98.6502L-47.985 97.0154L-53.3405 97.0154L-53.3405 94.9529L-55.069 94.9529L-55.069 100.76L-58.9538 100.76L-58.9538 111.969L-57.3952 111.969L-57.3952 102.318ZM-60.6354 99.4177L-63.9459 99.4177L-63.9459 94.9295L-65.4811 94.9295L-65.4811 99.4177L-68.7213 99.4177L-68.7213 111.898L-67.3327 111.898L-67.3327 101.023L-65.4811 101.023L-65.4811 116.814L-63.9459 116.814L-63.9459 101.023L-62.0299 101.023L-62.0299 109.883C-62.0299 110.099 -62.0768 110.146 -62.2409 110.17C-62.4342 110.17 -62.8678 110.17 -63.4655 110.146C-63.2018 110.574 -62.985 111.271 -62.9616 111.728C-62.1237 111.728 -61.5729 111.705 -61.1627 111.394C-60.7291 111.107 -60.6354 110.627 -60.6354 109.929L-60.6354 99.4177ZM-53.2174 104L-54.8991 104L-54.8991 108.271C-54.8991 110.627 -55.5026 113.603 -61.2331 115.426C-60.8756 115.783 -60.3952 116.41 -60.2018 116.838C-54.1549 114.658 -53.2174 111.248 -53.2174 108.271L-53.2174 104ZM-53.7741 113.504C-52.0221 114.441 -49.8366 115.859 -48.7584 116.867L-47.7741 115.59C-48.8756 114.635 -51.1081 113.263 -52.8131 112.379L-53.7741 113.504ZM-29.9851 102.535C-28.3562 104.41 -26.6277 106.666 -25.7898 108.107L-24.2253 107.146C-25.2859 105.441 -27.5417 102.752 -29.3874 100.806L-29.9851 101.123L-29.9851 94.9295L-31.8601 94.9295L-31.8601 112.472L-29.9851 112.472L-29.9851 102.535ZM-36.3718 100.326C-36.8288 103.689 -37.6433 106.426 -38.7976 108.681C-39.7585 107.047 -40.573 104.984 -41.1706 102.347C-40.9304 101.697 -40.7136 101 -40.5261 100.326L-36.3718 100.326ZM-35.5574 98.6033L-35.8913 98.6736L-40.0925 98.6736C-39.8288 97.6189 -39.5886 96.5349 -39.4187 95.4568L-41.2702 94.9763C-41.9148 99.658 -43.3796 104.17 -45.2781 106.666C-44.821 106.883 -44.1706 107.363 -43.8366 107.65C-43.2097 106.806 -42.6355 105.822 -42.1081 104.697C-41.4812 106.976 -40.6667 108.822 -39.7585 110.287C-41.3171 112.642 -43.3093 114.295 -45.6824 115.449C-45.2546 115.713 -44.5574 116.433 -44.2409 116.814C-42.0613 115.689 -40.1628 114.078 -38.6042 111.875C-35.7214 115.326 -31.8601 116.07 -27.782 116.07L-24.2781 116.07C-24.1784 115.566 -23.8445 114.681 -23.5574 114.224C-24.489 114.248 -26.9616 114.248 -27.6824 114.248C-31.3562 114.248 -34.9304 113.603 -37.6433 110.31C-36.0378 107.433 -34.907 103.713 -34.3796 98.9607L-35.5574 98.6033ZM-14.1473 110.146L-16.7664 111.008L-16.7664 105.078L-14.3406 105.078L-14.3406 103.402L-16.7664 103.402L-16.7664 98.1931L-14.0066 98.1931L-14.0066 96.5115L-21.4422 96.5115L-21.4422 98.1931L-18.4656 98.1931L-18.4656 103.402L-21.202 103.402L-21.202 105.078L-18.4656 105.078L-18.4656 111.535C-19.6902 111.945 -20.7977 112.279 -21.6824 112.543L-21.2781 114.347C-19.1395 113.65 -16.4031 112.713 -13.8367 111.851L-14.1473 110.146ZM-11.1941 102.031L-7.54961 102.031L-7.54961 105.107L-11.1941 105.107L-11.1941 102.031ZM-11.1941 97.5427L-7.54961 97.5427L-7.54961 100.566L-11.1941 100.566L-11.1941 97.5427ZM-2.34063 100.566L-6.01446 100.566L-6.01446 97.5427L-2.34063 97.5427L-2.34063 100.566ZM-2.34063 105.107L-6.01446 105.107L-6.01446 102.031L-2.34063 102.031L-2.34063 105.107ZM-5.86797 114.394L-5.86797 111.107L-0.27813 111.107L-0.27813 109.472L-5.86797 109.472L-5.86797 106.666L-0.635551 106.666L-0.635551 95.9841L-12.8289 95.9841L-12.8289 106.666L-7.6668 106.666L-7.6668 109.472L-13.116 109.472L-13.116 111.107L-7.6668 111.107L-7.6668 114.394L-14.9617 114.394L-14.9617 116.023L0.489449 116.023L0.489449 114.394L-5.86797 114.394ZM7.11633 119.697L8.48156 119.047C6.39562 115.642 5.41125 111.582 5.41125 107.504C5.41125 103.426 6.39562 99.3943 8.48156 95.9607L7.11633 95.3338C4.90734 98.9138 3.58898 102.799 3.58898 107.504C3.58898 112.232 4.90734 116.099 7.11633 119.697Z" fill="#D64A43" fill-opacity="1.000000" transform="matrix(1 0 0 1 1234.48 108.225)"/><path d="M12.0584 101.937L10.283 102.054L10.283 103.713L12.0584 103.713L12.0584 114.969L14.2439 114.969L14.2439 103.713L17.0037 103.713L17.0037 101.937L14.2439 101.937L14.2439 99.8748C14.2439 98.1931 14.8416 97.3025 16.0896 97.3025C16.5467 97.3025 17.074 97.4256 17.5545 97.6423L18.0349 95.9841C17.4138 95.7205 16.6463 95.5506 15.8494 95.5506C13.2595 95.5506 12.0584 97.2088 12.0584 99.8513L12.0584 101.937ZM19.9802 114.969L22.1892 114.969L22.1892 101.937L19.9802 101.937L19.9802 114.969ZM21.0818 96.4177C20.2439 96.4177 19.5935 96.9451 19.5935 97.8298C19.5935 98.6502 20.2439 99.2478 21.0818 99.2478C21.949 99.2478 22.6228 98.6502 22.6228 97.8298C22.6228 96.9451 21.949 96.4177 21.0818 96.4177ZM28.8836 115.279C29.4579 115.279 29.8446 115.209 30.1551 115.086L29.8446 113.41C29.6043 113.457 29.5106 113.457 29.3876 113.457C29.0536 113.457 28.7665 113.193 28.7665 112.519L28.7665 95.867L26.5809 95.867L26.5809 112.379C26.5809 114.224 27.2547 115.279 28.8836 115.279ZM37.5225 115.279C38.3135 115.279 39.1807 115.039 39.9248 114.799L39.4912 113.17C39.0576 113.334 38.46 113.504 38.0029 113.504C36.4912 113.504 35.9873 112.59 35.9873 110.984L35.9873 103.713L39.5146 103.713L39.5146 101.937L35.9873 101.937L35.9873 98.2869L34.165 98.2869L33.9014 101.937L31.8623 102.054L31.8623 103.713L33.8018 103.713L33.8018 110.937C33.8018 113.551 34.7393 115.279 37.5225 115.279ZM47.3647 115.279C49.1401 115.279 50.5346 114.681 51.6831 113.937L50.8921 112.496C49.9311 113.146 48.8999 113.527 47.6284 113.527C45.1557 113.527 43.4507 111.752 43.31 108.969L52.0932 108.969C52.1401 108.658 52.187 108.201 52.187 107.72C52.187 104 50.3178 101.603 47.0014 101.603C43.978 101.603 41.1245 104.24 41.1245 108.465C41.1245 112.76 43.9077 115.279 47.3647 115.279ZM43.2866 107.41C43.5503 104.838 45.1792 103.355 47.0307 103.355C49.0698 103.355 50.2651 104.767 50.2651 107.41L43.2866 107.41ZM55.4048 114.969L57.5904 114.969L57.5904 106.59C58.4517 104.363 59.7935 103.59 60.8775 103.59C61.4048 103.59 61.7154 103.642 62.149 103.806L62.5533 101.89C62.149 101.674 61.7388 101.603 61.1646 101.603C59.6997 101.603 58.3814 102.658 57.4673 104.31L57.397 104.31L57.2037 101.937L55.4048 101.937L55.4048 114.969ZM64.8867 119.697C67.1133 116.099 68.4375 112.232 68.4375 107.504C68.4375 102.799 67.1133 98.9138 64.8867 95.3338L63.5391 95.9607C65.6016 99.3943 66.6094 103.426 66.6094 107.504C66.6094 111.582 65.6016 115.642 63.5391 119.047L64.8867 119.697Z" fill="#D64A43" fill-opacity="1.000000" transform="matrix(1 0 0 1 1234.48 108.225)"/><path d="M0 0L278.417 0L278.417 94.084L0 94.084L0 0Z" fill="#FFFFFF" fill-opacity="1.000000" transform="matrix(1 0 0 1 504.271 320.162)"/><path d="M0 0L278.417 0L278.417 94.084L0 94.084L0 0Z" fill="none" stroke="#19191A" stroke-opacity="1.000000" stroke-width="2" stroke-dasharray="0 0" transform="matrix(1 0 0 1 504.271 320.162)"/><clipPath id="clip_17_28_0"><path d="M507.093 348.985L779.865 348.985L779.865 437.424L507.093 437.424L507.093 348.985Z"/></clipPath><g clip-path="url(#clip_17_28_0)"><path d="M83.2866 49.0315C84.9682 46.846 86.6264 44.1799 87.9448 41.5667L86.5034 40.7288C86.0991 41.6604 85.5952 42.5979 85.1147 43.4651L82.4721 43.7522C83.8139 41.6604 85.1381 38.9768 86.1225 36.3577L84.4174 35.7366C83.5737 38.6604 81.9448 41.7835 81.4643 42.5745C80.9838 43.3889 80.603 43.9924 80.1928 44.0862C80.3862 44.5198 80.6733 45.3577 80.767 45.6917C81.0776 45.5276 81.6342 45.4045 84.2006 45.0471C83.2631 46.5823 82.4252 47.8069 82.0385 48.2639C81.3706 49.1487 80.8432 49.7522 80.3862 49.846C80.5737 50.2795 80.8139 51.0706 80.8901 51.4045C81.3471 51.1409 82.0913 50.8772 87.3706 49.6526C87.2944 49.3186 87.2475 48.6917 87.2475 48.217L83.2866 49.0315ZM87.2241 51.8616C84.6108 52.8694 81.9917 53.9006 80.2631 54.4573L80.6967 56.1096C82.642 55.3186 85.1381 54.2874 87.5346 53.303L87.2241 51.8616ZM99.5581 39.8381L99.5581 42.4045L90.7983 42.4045L90.7983 39.8381L99.5581 39.8381ZM101.216 43.9163L101.216 38.3264L96.6342 38.3264C96.394 37.5354 95.8901 36.428 95.3862 35.5901L93.7045 36.094C94.0913 36.7678 94.4721 37.6057 94.7358 38.3264L89.1694 38.3264L89.1694 43.512C89.1694 47.1565 88.9526 52.4358 86.7905 56.2561C87.1772 56.4436 87.8745 56.9534 88.1616 57.2639C90.3706 53.3967 90.7749 47.8069 90.7983 43.9163L101.216 43.9163ZM98.2631 50.9241L98.2631 47.4202L100.039 47.4202L100.039 50.9241L98.2631 50.9241ZM95.3393 50.9241L95.3393 47.4202L97.062 47.4202L97.062 50.9241L95.3393 50.9241ZM92.1694 50.9241L92.1694 47.4202L94.1381 47.4202L94.1381 50.9241L92.1694 50.9241ZM100.039 45.9319L100.039 45.9612L90.7514 45.9612L90.7514 57.4573L92.1694 57.4573L92.1694 52.3655L94.1381 52.3655L94.1381 56.8772L95.3393 56.8772L95.3393 52.3655L97.062 52.3655L97.062 56.8538L98.2631 56.8538L98.2631 52.3655L100.039 52.3655L100.039 55.9163C100.039 56.1096 99.9682 56.1565 99.7983 56.1565L98.6733 56.1565C98.8432 56.5198 99.0307 57.094 99.1069 57.4573C99.9213 57.4573 100.496 57.4573 100.906 57.217C101.339 56.9768 101.433 56.5667 101.433 55.9397L101.433 45.9319L100.039 45.9319ZM110.433 53.0393L107.626 53.0393L107.626 45.9612L110.433 45.9612L110.433 53.0393ZM104.503 38.6604L107.433 38.6604C106.783 42.3108 105.681 45.6917 103.999 47.9534C104.286 48.4045 104.697 49.4124 104.814 49.846C105.271 49.2717 105.681 48.6213 106.062 47.9241L106.062 56.5901L107.626 56.5901L107.626 54.6448L112.015 54.6448L112.015 44.3733L107.626 44.3733C108.247 42.5979 108.751 40.6526 109.115 38.6604L112.689 38.6604L112.689 37.0081L104.503 37.0081L104.503 38.6604ZM122.193 50.8772L113.07 50.8772L113.07 52.4885L122.193 52.4885L122.193 50.8772ZM122.72 46.2014C123.13 43.2483 123.488 39.6917 123.681 37.2249L122.433 37.0784L122.169 37.1721L113.867 37.1721L113.867 38.8069L121.859 38.8069C121.665 40.8928 121.355 43.7991 121.062 46.2014L116.07 46.2014C116.286 44.4202 116.527 42.217 116.65 40.3889L114.992 40.2952C114.822 42.6213 114.511 45.7913 114.201 47.7366L123.874 47.7366C123.417 52.9924 122.913 55.1018 122.286 55.7053C122.046 55.9397 121.783 55.9924 121.378 55.9924C120.945 55.9924 119.89 55.9924 118.712 55.846C118.999 56.3264 119.169 57.0003 119.216 57.5042C120.37 57.551 121.449 57.5745 122.07 57.5042C122.79 57.4807 123.224 57.2874 123.704 56.7835C124.542 55.9163 125.099 53.4202 125.626 46.9924C125.65 46.7522 125.673 46.2014 125.673 46.2014L122.72 46.2014ZM137.867 36.1878C137.456 37.1487 136.665 38.5198 136.062 39.3811L137.216 39.9319C137.89 39.1409 138.658 37.9397 139.355 36.8616L137.867 36.1878ZM132.247 39.428C132.007 38.5432 131.363 37.2717 130.689 36.3342L129.394 36.8616C130.038 37.846 130.665 39.1643 130.882 40.0081L132.247 39.428ZM133.425 46.1487L135.077 46.1487L135.077 42.8616C136.232 43.676 137.72 44.8538 138.294 45.4045L139.279 44.1096C138.728 43.7053 136.665 42.3577 135.464 41.6604L139.976 41.6604L139.976 40.1721L135.077 40.1721L135.077 35.7366L133.425 35.7366L133.425 40.1721L128.48 40.1721L128.48 41.6604L132.874 41.6604C131.697 43.2249 129.921 44.6838 128.24 45.4045C128.574 45.7444 129.007 46.342 129.2 46.7522C130.665 45.9846 132.224 44.6604 133.425 43.2483L133.425 46.1487ZM137.07 49.5823C136.542 50.8303 135.775 51.885 134.843 52.7522C133.976 52.3186 133.015 51.8616 132.13 51.4807C132.464 50.9241 132.822 50.2561 133.185 49.5823L137.07 49.5823ZM138.247 54.7444C137.72 54.3577 136.999 53.9241 136.232 53.4963C137.503 52.1487 138.488 50.4729 139.115 48.4045L138.107 48.0003L137.843 48.0706L133.929 48.0706C134.122 47.637 134.263 47.2327 134.433 46.8225L132.851 46.5354C132.681 47.0393 132.464 47.5432 132.224 48.0706L128.984 48.0706L128.984 49.5823L131.48 49.5823C130.976 50.5198 130.449 51.4045 129.945 52.1253C131.122 52.5588 132.417 53.1565 133.618 53.7835C132.054 54.885 130.232 55.6526 128.286 56.0862C128.603 56.4202 128.96 57.0706 129.13 57.4573C131.31 56.8772 133.355 55.9397 135.054 54.5745C135.874 55.0315 136.595 55.512 137.146 55.9163L138.247 54.7444ZM146.574 42.0237C146.216 44.7835 145.642 47.1799 144.775 49.2014C143.867 47.0628 143.193 44.6135 142.736 42.0237L146.574 42.0237ZM149.867 42.0237L149.867 40.3655L143.099 40.3655C143.433 39.0237 143.72 37.6292 143.913 36.217L142.279 35.9768C141.681 40.1253 140.603 44.1331 138.775 46.6526C139.161 46.8928 139.829 47.4436 140.122 47.7366C140.72 46.8225 141.271 45.7678 141.751 44.5901C142.279 46.969 142.952 49.1253 143.867 51.0003C142.519 53.2795 140.65 55.0315 138.054 56.303C138.37 56.637 138.874 57.3577 139.038 57.7444C141.488 56.4202 143.31 54.7444 144.728 52.6526C145.906 54.6917 147.417 56.3264 149.263 57.4573C149.527 57.0003 150.031 56.3967 150.441 56.0628C148.449 55.0081 146.89 53.2327 145.665 51.0471C146.937 48.5745 147.728 45.5979 148.279 42.0237L149.867 42.0237ZM159.681 47.8069L159.441 46.1721L156.945 46.969L156.945 42.217L159.657 42.217L159.657 40.5588L156.945 40.5588L156.945 35.76L155.286 35.76L155.286 40.5588L152.31 40.5588L152.31 42.217L155.286 42.217L155.286 47.4729C154.038 47.8303 152.913 48.1643 152.023 48.428L152.456 50.1331C153.318 49.8694 154.279 49.5823 155.286 49.2483L155.286 55.4124C155.286 55.7756 155.169 55.8694 154.882 55.8694C154.618 55.8694 153.657 55.8694 152.626 55.846C152.866 56.3499 153.077 57.0706 153.154 57.5042C154.665 57.5276 155.573 57.4573 156.13 57.1643C156.728 56.8772 156.945 56.4202 156.945 55.4358L156.945 48.6917L159.681 47.8069ZM162.417 45.5979C162.441 45.0237 162.441 44.5198 162.441 43.9924L162.441 42.9612L167.07 42.9612L167.07 45.5979L162.417 45.5979ZM171.581 38.3499L171.581 41.3967L162.441 41.3967L162.441 38.3499L171.581 38.3499ZM171.751 55.2249L164.386 55.2249L164.386 51.5979L171.751 51.5979L171.751 55.2249ZM174.107 47.1331L174.107 45.5979L168.775 45.5979L168.775 42.9612L173.286 42.9612L173.286 36.7913L160.712 36.7913L160.712 43.9924C160.712 47.7835 160.495 52.9924 158.023 56.6604C158.433 56.8303 159.177 57.3342 159.464 57.6682C161.48 54.721 162.13 50.6838 162.347 47.1331L167.07 47.1331L167.07 50.0862L162.822 50.0862L162.822 57.6917L164.386 57.6917L164.386 56.7131L171.751 56.7131L171.751 57.5979L173.386 57.5979L173.386 50.0862L168.775 50.0862L168.775 47.1331L174.107 47.1331ZM194.263 40.6526C194.069 47.303 193.806 49.7288 193.355 50.303C193.138 50.5901 192.921 50.637 192.558 50.6135C192.153 50.637 191.193 50.6135 190.161 50.5198C190.402 51.0003 190.595 51.721 190.618 52.2249C191.743 52.2952 192.775 52.2952 193.402 52.2249C194.046 52.1487 194.503 51.9612 194.913 51.4045C195.581 50.5432 195.821 47.76 196.091 39.7913L196.091 38.9534L182.843 38.9534C183.37 38.0628 183.874 37.1253 184.302 36.1409L182.503 35.6135C181.114 38.8772 178.759 41.9768 176.122 43.9163C176.573 44.2092 177.271 44.8772 177.61 45.217C179.069 44.0159 180.487 42.4573 181.759 40.6526L194.263 40.6526ZM187.952 44.7366L187.952 48.5979L181.712 48.5979L181.712 44.7366L187.952 44.7366ZM184.712 55.4651C182.169 55.4651 181.712 55.1253 181.712 53.8303L181.712 50.2092L189.704 50.2092L189.704 43.1253L179.96 43.1253L179.96 53.8303C179.96 56.4963 181.062 57.1409 184.806 57.1409L193.859 57.1409C197.099 57.1409 197.814 56.2561 198.177 53.1096C197.673 53.0159 196.905 52.7522 196.472 52.4651C196.208 54.9319 195.874 55.4651 193.829 55.4651L184.712 55.4651Z" fill="#19191A" fill-opacity="1.000000" transform="matrix(1 0 0 1 504.271 320.162)"/></g><path d="M-308.483 -0.0585938L-298.091 5.94141L-298.091 -6.05859L-308.483 -0.0585938Z" transform="matrix(1 0 0 1 1091.17 367.263)" fill="#F79780" fill-opacity="1.000000" stroke="none"/><path d="M0 0L-302.483 -0.0585938" fill="none" stroke="#F79780" stroke-opacity="1.000000" stroke-width="2" stroke-dasharray="0 0" transform="matrix(1 0 0 1 1091.17 367.263)"/><path d="M-200.041 -18.0293L-108.409 -18.0293L-108.409 17.9707L-200.041 17.9707L-200.041 -18.0293Z" stroke-opacity="0" fill-opacity="1.000000" fill="#FFFFFF" transform="matrix(1 0 0 1 1091.17 367.263)"/><path d="M-192.576 9.28125C-190.801 9.28125 -189.406 8.6836 -188.258 7.93946L-189.049 6.49805C-190.01 7.14844 -191.041 7.5293 -192.312 7.5293C-194.785 7.5293 -196.49 5.75391 -196.631 2.97071L-187.847 2.97071C-187.801 2.66016 -187.754 2.20313 -187.754 1.72266C-187.754 -1.99804 -189.623 -4.39453 -192.939 -4.39453C-195.963 -4.39453 -198.816 -1.75781 -198.816 2.4668C-198.816 6.76172 -196.033 9.28125 -192.576 9.28125ZM-196.654 1.41211C-196.39 -1.16015 -194.761 -2.64257 -192.91 -2.64257C-190.871 -2.64257 -189.676 -1.23046 -189.676 1.41211L-196.654 1.41211ZM-184.536 8.97071L-182.35 8.97071L-182.35 -0.486324C-181.032 -1.80468 -180.124 -2.47851 -178.776 -2.47851C-177.048 -2.47851 -176.303 -1.44726 -176.303 1.00196L-176.303 8.97071L-174.124 8.97071L-174.124 0.714848C-174.124 -2.61914 -175.366 -4.39453 -178.102 -4.39453C-179.883 -4.39453 -181.225 -3.41601 -182.473 -2.1914L-182.544 -2.1914L-182.737 -4.06054L-184.536 -4.06054L-184.536 8.97071ZM-164.739 9.28125C-163.175 9.28125 -161.686 8.6836 -160.538 7.62891L-161.475 6.16407C-162.29 6.90821 -163.345 7.45899 -164.546 7.45899C-166.942 7.45899 -168.577 5.4668 -168.577 2.4668C-168.577 -0.533199 -166.848 -2.57226 -164.499 -2.57226C-163.438 -2.57226 -162.647 -2.09179 -161.88 -1.39453L-160.755 -2.85937C-161.686 -3.67968 -162.864 -4.39453 -164.569 -4.39453C-167.903 -4.39453 -170.856 -1.875 -170.856 2.4668C-170.856 6.78516 -168.19 9.28125 -164.739 9.28125ZM-153.169 9.28125C-149.976 9.28125 -147.123 6.78516 -147.123 2.4668C-147.123 -1.875 -149.976 -4.39453 -153.169 -4.39453C-156.363 -4.39453 -159.216 -1.875 -159.216 2.4668C-159.216 6.78516 -156.363 9.28125 -153.169 9.28125ZM-153.169 7.45899C-155.425 7.45899 -156.937 5.4668 -156.937 2.4668C-156.937 -0.533199 -155.425 -2.57226 -153.169 -2.57226C-150.914 -2.57226 -149.378 -0.533199 -149.378 2.4668C-149.378 5.4668 -150.914 7.45899 -153.169 7.45899ZM-139.247 9.28125C-137.688 9.28125 -136.323 8.44336 -135.291 7.43555L-135.239 7.43555L-135.028 8.97071L-133.247 8.97071L-133.247 -10.1309L-135.432 -10.1309L-135.432 -5.11523L-135.315 -2.85937C-136.463 -3.82031 -137.448 -4.39453 -138.983 -4.39453C-141.959 -4.39453 -144.625 -1.75781 -144.625 2.4668C-144.625 6.8086 -142.51 9.28125 -139.247 9.28125ZM-138.766 7.45899C-141.075 7.45899 -142.37 5.58399 -142.37 2.44336C-142.37 -0.533199 -140.711 -2.54882 -138.602 -2.54882C-137.518 -2.54882 -136.54 -2.16796 -135.432 -1.18359L-135.432 5.66016C-136.51 6.86133 -137.571 7.45899 -138.766 7.45899ZM-123.552 9.28125C-121.777 9.28125 -120.382 8.6836 -119.234 7.93946L-120.025 6.49805C-120.986 7.14844 -122.017 7.5293 -123.288 7.5293C-125.761 7.5293 -127.466 5.75391 -127.607 2.97071L-118.824 2.97071C-118.777 2.66016 -118.73 2.20313 -118.73 1.72266C-118.73 -1.99804 -120.599 -4.39453 -123.915 -4.39453C-126.939 -4.39453 -129.792 -1.75781 -129.792 2.4668C-129.792 6.76172 -127.009 9.28125 -123.552 9.28125ZM-127.63 1.41211C-127.367 -1.16015 -125.738 -2.64257 -123.886 -2.64257C-121.847 -2.64257 -120.652 -1.23046 -120.652 1.41211L-127.63 1.41211ZM-115.512 8.97071L-113.327 8.97071L-113.327 0.591801C-112.465 -1.63476 -111.123 -2.4082 -110.039 -2.4082C-109.512 -2.4082 -109.202 -2.35546 -108.768 -2.1914L-108.364 -4.10742C-108.768 -4.32421 -109.178 -4.39453 -109.752 -4.39453C-111.217 -4.39453 -112.535 -3.33984 -113.45 -1.6875L-113.52 -1.6875L-113.713 -4.06054L-115.512 -4.06054L-115.512 8.97071Z" fill="#D64A43" fill-opacity="1.000000" transform="matrix(1 0 0 1 1091.17 367.263)"/><path d="M-211.713 -0.000976562L-201.321 5.99902L-201.321 -6.00098L-211.713 -0.000976562Z" transform="matrix(1 0 0 1 504.271 367.204)" fill="#F79780" fill-opacity="1.000000" stroke="none"/><path d="M0 0L-205.713 -0.000976562" fill="none" stroke="#F79780" stroke-opacity="1.000000" stroke-width="2" stroke-dasharray="0 0" transform="matrix(1 0 0 1 504.271 367.204)"/><path d="M-141.293 -18.0005L-70.3974 -18.0005L-70.3974 17.9995L-141.293 17.9995L-141.293 -18.0005Z" stroke-opacity="0" fill-opacity="1.000000" fill="#FFFFFF" transform="matrix(1 0 0 1 504.271 367.204)"/><path d="M-139.084 8.99951L-136.899 8.99951L-136.899 -0.45752C-135.703 -1.79932 -134.596 -2.44971 -133.612 -2.44971C-131.959 -2.44971 -131.192 -1.41846 -131.192 1.03076L-131.192 8.99951L-129.006 8.99951L-129.006 -0.45752C-127.782 -1.79932 -126.727 -2.44971 -125.719 -2.44971C-124.061 -2.44971 -123.293 -1.41846 -123.293 1.03076L-123.293 8.99951L-121.108 8.99951L-121.108 0.743652C-121.108 -2.59033 -122.379 -4.36572 -125.069 -4.36572C-126.651 -4.36572 -128.022 -3.33447 -129.364 -1.86963C-129.891 -3.41064 -130.975 -4.36572 -132.967 -4.36572C-134.526 -4.36572 -135.891 -3.38721 -137.022 -2.13916L-137.092 -2.13916L-137.285 -4.03174L-139.084 -4.03174L-139.084 8.99951ZM-113.069 9.31006C-111.27 9.31006 -109.976 8.37842 -108.751 6.96045L-108.675 6.96045L-108.511 8.99951L-106.683 8.99951L-106.683 -4.03174L-108.868 -4.03174L-108.868 5.2085C-110.116 6.76709 -111.054 7.41748 -112.395 7.41748C-114.124 7.41748 -114.845 6.38623 -114.845 3.96045L-114.845 -4.03174L-117.03 -4.03174L-117.03 4.22412C-117.03 7.53467 -115.806 9.31006 -113.069 9.31006ZM-104.144 8.99951L-101.835 8.99951L-100.083 5.95264C-99.6322 5.16162 -99.1986 4.36475 -98.7416 3.62061L-98.6185 3.62061C-98.1439 4.36475 -97.6635 5.16162 -97.2299 5.95264L-95.308 8.99951L-92.9115 8.99951L-97.2064 2.42529L-93.2455 -4.03174L-95.5248 -4.03174L-97.1361 -1.15479C-97.517 -0.434082 -97.9037 0.286621 -98.308 1.00732L-98.4076 1.00732C-98.8353 0.286621 -99.2924 -0.434082 -99.7025 -1.15479L-101.454 -4.03174L-103.804 -4.03174L-99.8431 2.2085L-104.144 8.99951ZM-85.5405 9.31006C-83.7651 9.31006 -82.3706 8.7124 -81.2222 7.96826L-82.0132 6.52686C-82.9741 7.17725 -84.0054 7.55811 -85.2769 7.55811C-87.7495 7.55811 -89.4546 5.78271 -89.5952 2.99951L-80.812 2.99951C-80.7651 2.68896 -80.7183 2.23193 -80.7183 1.75146C-80.7183 -1.96924 -82.5874 -4.36572 -85.9038 -4.36572C-88.9272 -4.36572 -91.7808 -1.729 -91.7808 2.49561C-91.7808 6.79053 -88.9976 9.31006 -85.5405 9.31006ZM-89.6187 1.44092C-89.355 -1.13135 -87.7261 -2.61377 -85.8745 -2.61377C-83.8354 -2.61377 -82.6401 -1.20166 -82.6401 1.44092L-89.6187 1.44092ZM-77.5004 8.99951L-75.3149 8.99951L-75.3149 0.620605C-74.4536 -1.60596 -73.1118 -2.37939 -72.0278 -2.37939C-71.5004 -2.37939 -71.1899 -2.32666 -70.7563 -2.1626L-70.352 -4.07861C-70.7563 -4.29541 -71.1664 -4.36572 -71.7407 -4.36572C-73.2055 -4.36572 -74.5239 -3.31104 -75.4379 -1.65869L-75.5082 -1.65869L-75.7016 -4.03174L-77.5004 -4.03174L-77.5004 8.99951Z" fill="#D64A43" fill-opacity="1.000000" transform="matrix(1 0 0 1 504.271 367.204)"/></svg>